<?xml version="1.0" encoding="UTF-8" standalone="no"?>
<!DOCTYPE svg PUBLIC "-//W3C//DTD SVG 1.1//EN"
 "http://www.w3.org/Graphics/SVG/1.1/DTD/svg11.dtd">
<!-- Generated by graphviz version 2.47.0 (20210316.0004)
 -->
<!-- Title: dependencies Pages: 1 -->
<svg width="998pt" height="284pt"
 viewBox="0.00 0.00 998.00 284.00" xmlns="http://www.w3.org/2000/svg" xmlns:xlink="http://www.w3.org/1999/xlink">
<g id="graph0" class="graph" transform="scale(1 1) rotate(0) translate(4 280)">
<title>dependencies</title>
<polygon fill="white" stroke="transparent" points="-4,4 -4,-280 994,-280 994,4 -4,4"/>
<text text-anchor="start" x="474.01" y="-42.4" font-family="Times-12" font-weight="bold" font-size="14.00">Legend</text>
<polygon fill="#ffffb3" stroke="transparent" points="261,-10 261,-30 281,-30 281,-10 261,-10"/>
<text text-anchor="start" x="284.63" y="-15.4" font-family="Times-12" font-size="14.00"> &#160;Declarations</text>
<polygon fill="#8dd3c7" stroke="transparent" points="374,-10 374,-30 394,-30 394,-10 374,-10"/>
<text text-anchor="start" x="397.73" y="-15.4" font-family="Times-12" font-size="14.00"> &#160;Module</text>
<polygon fill="#80b1d3" stroke="transparent" points="460,-10 460,-30 480,-30 480,-10 460,-10"/>
<text text-anchor="start" x="483.78" y="-15.4" font-family="Times-12" font-size="14.00"> &#160;Bootstrap</text>
<polygon fill="#fdb462" stroke="transparent" points="557,-10 557,-30 577,-30 577,-10 557,-10"/>
<text text-anchor="start" x="580.67" y="-15.4" font-family="Times-12" font-size="14.00"> &#160;Providers</text>
<polygon fill="#fb8072" stroke="transparent" points="653,-10 653,-30 673,-30 673,-10 653,-10"/>
<text text-anchor="start" x="676.73" y="-15.4" font-family="Times-12" font-size="14.00"> &#160;Exports</text>
<g id="clust1" class="cluster">
<title>cluster_AppModule</title>
<polygon fill="none" stroke="black" stroke-dasharray="1,5" points="8,-70 8,-268 982,-268 982,-70 8,-70"/>
</g>
<g id="clust2" class="cluster">
<title>cluster_AppModule_declarations</title>
<polygon fill="none" stroke="black" points="168,-78 168,-130 974,-130 974,-78 168,-78"/>
</g>
<g id="clust10" class="cluster">
<title>cluster_AppModule_imports</title>
<polygon fill="none" stroke="black" points="16,-78 16,-130 160,-130 160,-78 16,-78"/>
</g>
<g id="clust12" class="cluster">
<title>cluster_AppModule_bootstrap</title>
<polygon fill="none" stroke="black" points="516,-208 516,-260 586,-260 586,-208 516,-208"/>
</g>
<!-- App -->
<g id="node1" class="node">
<title>App</title>
<polygon fill="#ffffb3" stroke="black" points="966,-122 912,-122 912,-86 966,-86 966,-122"/>
<text text-anchor="middle" x="939" y="-99.8" font-family="Times,serif" font-size="14.00">App</text>
</g>
<!-- AppModule -->
<g id="node8" class="node">
<title>AppModule</title>
<polygon fill="#8dd3c7" stroke="black" points="592.66,-187 589.66,-191 568.66,-191 565.66,-187 509.34,-187 509.34,-151 592.66,-151 592.66,-187"/>
<text text-anchor="middle" x="551" y="-164.8" font-family="Times,serif" font-size="14.00">AppModule</text>
</g>
<!-- App&#45;&gt;AppModule -->
<g id="edge1" class="edge">
<title>App&#45;&gt;AppModule</title>
<path fill="none" stroke="black" d="M939,-122.29C939,-144.21 939,-178 939,-178 939,-178 602.89,-178 602.89,-178"/>
<polygon fill="black" stroke="black" points="602.89,-174.5 592.89,-178 602.89,-181.5 602.89,-174.5"/>
</g>
<!-- LoginUsuarios -->
<g id="node2" class="node">
<title>LoginUsuarios</title>
<polygon fill="#ffffb3" stroke="black" points="893.71,-122 794.29,-122 794.29,-86 893.71,-86 893.71,-122"/>
<text text-anchor="middle" x="844" y="-99.8" font-family="Times,serif" font-size="14.00">LoginUsuarios</text>
</g>
<!-- LoginUsuarios&#45;&gt;AppModule -->
<g id="edge2" class="edge">
<title>LoginUsuarios&#45;&gt;AppModule</title>
<path fill="none" stroke="black" d="M844,-122.11C844,-141.34 844,-169 844,-169 844,-169 602.67,-169 602.67,-169"/>
<polygon fill="black" stroke="black" points="602.67,-165.5 592.67,-169 602.67,-172.5 602.67,-165.5"/>
</g>
<!-- PanelAdmin -->
<g id="node3" class="node">
<title>PanelAdmin</title>
<polygon fill="#ffffb3" stroke="black" points="775.99,-122 690.01,-122 690.01,-86 775.99,-86 775.99,-122"/>
<text text-anchor="middle" x="733" y="-99.8" font-family="Times,serif" font-size="14.00">PanelAdmin</text>
</g>
<!-- PanelAdmin&#45;&gt;AppModule -->
<g id="edge3" class="edge">
<title>PanelAdmin&#45;&gt;AppModule</title>
<path fill="none" stroke="black" d="M733,-122.03C733,-138.4 733,-160 733,-160 733,-160 602.75,-160 602.75,-160"/>
<polygon fill="black" stroke="black" points="602.75,-156.5 592.75,-160 602.75,-163.5 602.75,-156.5"/>
</g>
<!-- PanelComentarista -->
<g id="node4" class="node">
<title>PanelComentarista</title>
<polygon fill="#ffffb3" stroke="black" points="671.75,-122 550.25,-122 550.25,-86 671.75,-86 671.75,-122"/>
<text text-anchor="middle" x="611" y="-99.8" font-family="Times,serif" font-size="14.00">PanelComentarista</text>
</g>
<!-- PanelComentarista&#45;&gt;AppModule -->
<g id="edge4" class="edge">
<title>PanelComentarista&#45;&gt;AppModule</title>
<path fill="none" stroke="black" d="M571.48,-122.11C571.48,-122.11 571.48,-140.99 571.48,-140.99"/>
<polygon fill="black" stroke="black" points="567.98,-140.99 571.48,-150.99 574.98,-140.99 567.98,-140.99"/>
</g>
<!-- PanelEditor -->
<g id="node5" class="node">
<title>PanelEditor</title>
<polygon fill="#ffffb3" stroke="black" points="532.1,-122 449.9,-122 449.9,-86 532.1,-86 532.1,-122"/>
<text text-anchor="middle" x="491" y="-99.8" font-family="Times,serif" font-size="14.00">PanelEditor</text>
</g>
<!-- PanelEditor&#45;&gt;AppModule -->
<g id="edge5" class="edge">
<title>PanelEditor&#45;&gt;AppModule</title>
<path fill="none" stroke="black" d="M520.61,-122.11C520.61,-122.11 520.61,-140.99 520.61,-140.99"/>
<polygon fill="black" stroke="black" points="517.11,-140.99 520.61,-150.99 524.11,-140.99 517.11,-140.99"/>
</g>
<!-- PanelUsuarioNormal -->
<g id="node6" class="node">
<title>PanelUsuarioNormal</title>
<polygon fill="#ffffb3" stroke="black" points="432.18,-122 297.82,-122 297.82,-86 432.18,-86 432.18,-122"/>
<text text-anchor="middle" x="365" y="-99.8" font-family="Times,serif" font-size="14.00">PanelUsuarioNormal</text>
</g>
<!-- PanelUsuarioNormal&#45;&gt;AppModule -->
<g id="edge6" class="edge">
<title>PanelUsuarioNormal&#45;&gt;AppModule</title>
<path fill="none" stroke="black" d="M365,-122.03C365,-138.4 365,-160 365,-160 365,-160 499.26,-160 499.26,-160"/>
<polygon fill="black" stroke="black" points="499.26,-163.5 509.26,-160 499.26,-156.5 499.26,-163.5"/>
</g>
<!-- SingInUsuarios -->
<g id="node7" class="node">
<title>SingInUsuarios</title>
<polygon fill="#ffffb3" stroke="black" points="279.6,-122 176.4,-122 176.4,-86 279.6,-86 279.6,-122"/>
<text text-anchor="middle" x="228" y="-99.8" font-family="Times,serif" font-size="14.00">SingInUsuarios</text>
</g>
<!-- SingInUsuarios&#45;&gt;AppModule -->
<g id="edge7" class="edge">
<title>SingInUsuarios&#45;&gt;AppModule</title>
<path fill="none" stroke="black" d="M228,-122.11C228,-141.34 228,-169 228,-169 228,-169 499.1,-169 499.1,-169"/>
<polygon fill="black" stroke="black" points="499.1,-172.5 509.1,-169 499.1,-165.5 499.1,-172.5"/>
</g>
<!-- App  -->
<g id="node10" class="node">
<title>App </title>
<polygon fill="#80b1d3" stroke="black" points="578,-252 524,-252 524,-216 578,-216 578,-252"/>
<text text-anchor="middle" x="551" y="-229.8" font-family="Times,serif" font-size="14.00">App </text>
</g>
<!-- AppModule&#45;&gt;App  -->
<g id="edge9" class="edge">
<title>AppModule&#45;&gt;App </title>
<path fill="none" stroke="black" stroke-dasharray="1,5" d="M551,-187.11C551,-187.11 551,-205.99 551,-205.99"/>
<polygon fill="black" stroke="black" points="547.5,-205.99 551,-215.99 554.5,-205.99 547.5,-205.99"/>
</g>
<!-- AppRoutingModule -->
<g id="node9" class="node">
<title>AppRoutingModule</title>
<polygon fill="#8dd3c7" stroke="black" points="152.27,-122 149.27,-126 128.27,-126 125.27,-122 23.73,-122 23.73,-86 152.27,-86 152.27,-122"/>
<text text-anchor="middle" x="88" y="-99.8" font-family="Times,serif" font-size="14.00">AppRoutingModule</text>
</g>
<!-- AppRoutingModule&#45;&gt;AppModule -->
<g id="edge8" class="edge">
<title>AppRoutingModule&#45;&gt;AppModule</title>
<path fill="none" stroke="black" d="M88,-122.29C88,-144.21 88,-178 88,-178 88,-178 499.1,-178 499.1,-178"/>
<polygon fill="black" stroke="black" points="499.1,-181.5 509.1,-178 499.1,-174.5 499.1,-181.5"/>
</g>
</g>
</svg>
