<?xml version="1.0" encoding="UTF-8" standalone="no"?>
<!DOCTYPE svg PUBLIC "-//W3C//DTD SVG 1.1//EN"
 "http://www.w3.org/Graphics/SVG/1.1/DTD/svg11.dtd">
<!-- Generated by graphviz version 2.47.0 (20210316.0004)
 -->
<!-- Title: dependencies Pages: 1 -->
<svg width="998pt" height="284pt"
 viewBox="0.00 0.00 998.00 284.00" xmlns="http://www.w3.org/2000/svg" xmlns:xlink="http://www.w3.org/1999/xlink">
<g id="graph0" class="graph" transform="scale(1 1) rotate(0) translate(4 280)">
<title>dependencies</title>
<polygon fill="white" stroke="transparent" points="-4,4 -4,-280 994,-280 994,4 -4,4"/>
<text text-anchor="start" x="474.01" y="-42.4" font-family="Times-12" font-weight="bold" font-size="14.00">Legend</text>
<polygon fill="#ffffb3" stroke="transparent" points="261,-10 261,-30 281,-30 281,-10 261,-10"/>
<text text-anchor="start" x="284.63" y="-15.4" font-family="Times-12" font-size="14.00"> &#160;Declarations</text>
<polygon fill="#8dd3c7" stroke="transparent" points="374,-10 374,-30 394,-30 394,-10 374,-10"/>
<text text-anchor="start" x="397.73" y="-15.4" font-family="Times-12" font-size="14.00"> &#160;Module</text>
<polygon fill="#80b1d3" stroke="transparent" points="460,-10 460,-30 480,-30 480,-10 460,-10"/>
<text text-anchor="start" x="483.78" y="-15.4" font-family="Times-12" font-size="14.00"> &#160;Bootstrap</text>
<polygon fill="#fdb462" stroke="transparent" points="557,-10 557,-30 577,-30 577,-10 557,-10"/>
<text text-anchor="start" x="580.67" y="-15.4" font-family="Times-12" font-size="14.00"> &#160;Providers</text>
<polygon fill="#fb8072" stroke="transparent" points="653,-10 653,-30 673,-30 673,-10 653,-10"/>
<text text-anchor="start" x="676.73" y="-15.4" font-family="Times-12" font-size="14.00"> &#160;Exports</text>
<g id="clust1" class="cluster">
<title>cluster_AppModule</title>
<polygon fill="none" stroke="black" stroke-dasharray="1,5" points="8,-70 8,-268 982,-268 982,-70 8,-70"/>
</g>
<g id="clust10" class="cluster">
<title>cluster_AppModule_imports</title>
<polygon fill="none" stroke="black" points="830,-78 830,-130 974,-130 974,-78 830,-78"/>
</g>
<g id="clust12" class="cluster">
<title>cluster_AppModule_bootstrap</title>
<polygon fill="none" stroke="black" points="485,-208 485,-260 555,-260 555,-208 485,-208"/>
</g>
<g id="clust2" class="cluster">
<title>cluster_AppModule_declarations</title>
<polygon fill="none" stroke="black" points="16,-78 16,-130 822,-130 822,-78 16,-78"/>
</g>
<!-- App -->
<g id="node1" class="node">
<title>App</title>
<polygon fill="#ffffb3" stroke="black" points="814,-122 760,-122 760,-86 814,-86 814,-122"/>
<text text-anchor="middle" x="787" y="-99.8" font-family="Times,serif" font-size="14.00">App</text>
</g>
<!-- AppModule -->
<g id="node8" class="node">
<title>AppModule</title>
<polygon fill="#8dd3c7" stroke="black" points="561.66,-187 558.66,-191 537.66,-191 534.66,-187 478.34,-187 478.34,-151 561.66,-151 561.66,-187"/>
<text text-anchor="middle" x="520" y="-164.8" font-family="Times,serif" font-size="14.00">AppModule</text>
</g>
<!-- App&#45;&gt;AppModule -->
<g id="edge1" class="edge">
<title>App&#45;&gt;AppModule</title>
<path fill="none" stroke="black" d="M787,-122.11C787,-141.34 787,-169 787,-169 787,-169 571.72,-169 571.72,-169"/>
<polygon fill="black" stroke="black" points="571.72,-165.5 561.72,-169 571.72,-172.5 571.72,-165.5"/>
</g>
<!-- LoginUsuarios -->
<g id="node2" class="node">
<title>LoginUsuarios</title>
<polygon fill="#ffffb3" stroke="black" points="741.71,-122 642.29,-122 642.29,-86 741.71,-86 741.71,-122"/>
<text text-anchor="middle" x="692" y="-99.8" font-family="Times,serif" font-size="14.00">LoginUsuarios</text>
</g>
<!-- LoginUsuarios&#45;&gt;AppModule -->
<g id="edge2" class="edge">
<title>LoginUsuarios&#45;&gt;AppModule</title>
<path fill="none" stroke="black" d="M692,-122.03C692,-138.4 692,-160 692,-160 692,-160 572.08,-160 572.08,-160"/>
<polygon fill="black" stroke="black" points="572.08,-156.5 562.08,-160 572.08,-163.5 572.08,-156.5"/>
</g>
<!-- PanelAdmin -->
<g id="node3" class="node">
<title>PanelAdmin</title>
<polygon fill="#ffffb3" stroke="black" points="623.99,-122 538.01,-122 538.01,-86 623.99,-86 623.99,-122"/>
<text text-anchor="middle" x="581" y="-99.8" font-family="Times,serif" font-size="14.00">PanelAdmin</text>
</g>
<!-- PanelAdmin&#45;&gt;AppModule -->
<g id="edge3" class="edge">
<title>PanelAdmin&#45;&gt;AppModule</title>
<path fill="none" stroke="black" d="M549.92,-122.11C549.92,-122.11 549.92,-140.99 549.92,-140.99"/>
<polygon fill="black" stroke="black" points="546.42,-140.99 549.92,-150.99 553.42,-140.99 546.42,-140.99"/>
</g>
<!-- PanelComentarista -->
<g id="node4" class="node">
<title>PanelComentarista</title>
<polygon fill="#ffffb3" stroke="black" points="519.75,-122 398.25,-122 398.25,-86 519.75,-86 519.75,-122"/>
<text text-anchor="middle" x="459" y="-99.8" font-family="Times,serif" font-size="14.00">PanelComentarista</text>
</g>
<!-- PanelComentarista&#45;&gt;AppModule -->
<g id="edge4" class="edge">
<title>PanelComentarista&#45;&gt;AppModule</title>
<path fill="none" stroke="black" d="M499.02,-122.11C499.02,-122.11 499.02,-140.99 499.02,-140.99"/>
<polygon fill="black" stroke="black" points="495.52,-140.99 499.02,-150.99 502.52,-140.99 495.52,-140.99"/>
</g>
<!-- PanelEditor -->
<g id="node5" class="node">
<title>PanelEditor</title>
<polygon fill="#ffffb3" stroke="black" points="380.1,-122 297.9,-122 297.9,-86 380.1,-86 380.1,-122"/>
<text text-anchor="middle" x="339" y="-99.8" font-family="Times,serif" font-size="14.00">PanelEditor</text>
</g>
<!-- PanelEditor&#45;&gt;AppModule -->
<g id="edge5" class="edge">
<title>PanelEditor&#45;&gt;AppModule</title>
<path fill="none" stroke="black" d="M339,-122.03C339,-138.4 339,-160 339,-160 339,-160 468.02,-160 468.02,-160"/>
<polygon fill="black" stroke="black" points="468.02,-163.5 478.02,-160 468.02,-156.5 468.02,-163.5"/>
</g>
<!-- PanelUsuarioNormal -->
<g id="node6" class="node">
<title>PanelUsuarioNormal</title>
<polygon fill="#ffffb3" stroke="black" points="280.18,-122 145.82,-122 145.82,-86 280.18,-86 280.18,-122"/>
<text text-anchor="middle" x="213" y="-99.8" font-family="Times,serif" font-size="14.00">PanelUsuarioNormal</text>
</g>
<!-- PanelUsuarioNormal&#45;&gt;AppModule -->
<g id="edge6" class="edge">
<title>PanelUsuarioNormal&#45;&gt;AppModule</title>
<path fill="none" stroke="black" d="M213,-122.11C213,-141.34 213,-169 213,-169 213,-169 468.28,-169 468.28,-169"/>
<polygon fill="black" stroke="black" points="468.28,-172.5 478.28,-169 468.28,-165.5 468.28,-172.5"/>
</g>
<!-- SingInUsuarios -->
<g id="node7" class="node">
<title>SingInUsuarios</title>
<polygon fill="#ffffb3" stroke="black" points="127.6,-122 24.4,-122 24.4,-86 127.6,-86 127.6,-122"/>
<text text-anchor="middle" x="76" y="-99.8" font-family="Times,serif" font-size="14.00">SingInUsuarios</text>
</g>
<!-- SingInUsuarios&#45;&gt;AppModule -->
<g id="edge7" class="edge">
<title>SingInUsuarios&#45;&gt;AppModule</title>
<path fill="none" stroke="black" d="M76,-122.29C76,-144.21 76,-178 76,-178 76,-178 468.23,-178 468.23,-178"/>
<polygon fill="black" stroke="black" points="468.23,-181.5 478.23,-178 468.23,-174.5 468.23,-181.5"/>
</g>
<!-- App  -->
<g id="node10" class="node">
<title>App </title>
<polygon fill="#80b1d3" stroke="black" points="547,-252 493,-252 493,-216 547,-216 547,-252"/>
<text text-anchor="middle" x="520" y="-229.8" font-family="Times,serif" font-size="14.00">App </text>
</g>
<!-- AppModule&#45;&gt;App  -->
<g id="edge9" class="edge">
<title>AppModule&#45;&gt;App </title>
<path fill="none" stroke="black" stroke-dasharray="1,5" d="M520,-187.11C520,-187.11 520,-205.99 520,-205.99"/>
<polygon fill="black" stroke="black" points="516.5,-205.99 520,-215.99 523.5,-205.99 516.5,-205.99"/>
</g>
<!-- AppRoutingModule -->
<g id="node9" class="node">
<title>AppRoutingModule</title>
<polygon fill="#8dd3c7" stroke="black" points="966.27,-122 963.27,-126 942.27,-126 939.27,-122 837.73,-122 837.73,-86 966.27,-86 966.27,-122"/>
<text text-anchor="middle" x="902" y="-99.8" font-family="Times,serif" font-size="14.00">AppRoutingModule</text>
</g>
<!-- AppRoutingModule&#45;&gt;AppModule -->
<g id="edge8" class="edge">
<title>AppRoutingModule&#45;&gt;AppModule</title>
<path fill="none" stroke="black" d="M902,-122.29C902,-144.21 902,-178 902,-178 902,-178 571.97,-178 571.97,-178"/>
<polygon fill="black" stroke="black" points="571.97,-174.5 561.97,-178 571.97,-181.5 571.97,-174.5"/>
</g>
</g>
</svg>
